<svg width="1400" height="788" viewBox="0 0 1400 788" fill="none" xmlns="http://www.w3.org/2000/svg" role="img" aria-labelledby="title desc">
  <title id="title">Abuja real estate companies guide</title>
  <desc id="desc">Black Nigerian real estate adviser reviewing Abuja property documents with a buyer, with an Abuja skyline and verification checklist.</desc>
  <rect width="1400" height="788" fill="#ECFDF5"/>
  <rect x="76" y="76" width="1248" height="636" rx="42" fill="#FFFFFF"/>
  <path d="M140 610H1260" stroke="#BBF7D0" stroke-width="18" stroke-linecap="round"/>
  <rect x="178" y="212" width="182" height="386" rx="18" fill="#DCFCE7"/>
  <rect x="398" y="158" width="166" height="440" rx="18" fill="#BBF7D0"/>
  <rect x="600" y="252" width="190" height="346" rx="18" fill="#86EFAC"/>
  <rect x="824" y="190" width="158" height="408" rx="18" fill="#DCFCE7"/>
  <rect x="1016" y="286" width="206" height="312" rx="18" fill="#BBF7D0"/>
  <path d="M1116 166L1208 286H1024L1116 166Z" fill="#16A34A"/>
  <circle cx="260" cy="340" r="56" fill="#6B3F2A"/>
  <path d="M198 324C210 273 263 247 311 273C338 288 350 312 348 338C314 339 287 324 258 293C241 315 220 326 198 324Z" fill="#111827"/>
  <path d="M156 610C166 500 202 436 260 436C318 436 354 500 364 610H156Z" fill="#16A34A"/>
  <circle cx="504" cy="355" r="54" fill="#5B341F"/>
  <path d="M447 337C455 291 503 264 550 285C580 299 594 324 590 350C555 348 531 333 504 303C486 325 468 337 447 337Z" fill="#111827"/>
  <path d="M410 610C420 508 453 448 504 448C555 448 588 508 598 610H410Z" fill="#0F766E"/>
  <rect x="646" y="372" width="348" height="206" rx="22" fill="#F8FAFC" stroke="#16A34A" stroke-width="6"/>
  <rect x="682" y="414" width="220" height="18" rx="9" fill="#16A34A"/>
  <rect x="682" y="462" width="270" height="14" rx="7" fill="#86EFAC"/>
  <rect x="682" y="504" width="238" height="14" rx="7" fill="#86EFAC"/>
  <path d="M930 409L951 430L989 392" stroke="#16A34A" stroke-width="12" stroke-linecap="round" stroke-linejoin="round"/>
  <text x="636" y="138" fill="#14532D" font-family="Arial, sans-serif" font-size="42" font-weight="700">Abuja Property Verification</text>
</svg>
