<svg width="1400" height="788" viewBox="0 0 1400 788" fill="none" xmlns="http://www.w3.org/2000/svg" role="img" aria-labelledby="title desc">
  <title id="title">Nigerian small business owners checking local SEO</title>
  <desc id="desc">Illustration of Black Nigerian entrepreneurs reviewing local search visibility on a laptop and phone inside a Lagos-style shop.</desc>
  <rect width="1400" height="788" fill="#ECFDF5"/>
  <rect x="72" y="74" width="1256" height="640" rx="38" fill="#FFFFFF"/>
  <rect x="112" y="114" width="1176" height="560" rx="26" fill="#F8FAFC"/>
  <rect x="112" y="114" width="1176" height="112" rx="26" fill="#16A34A"/>
  <circle cx="181" cy="170" r="18" fill="#DCFCE7"/>
  <circle cx="235" cy="170" r="18" fill="#BBF7D0"/>
  <circle cx="289" cy="170" r="18" fill="#86EFAC"/>
  <rect x="920" y="151" width="280" height="38" rx="19" fill="#DCFCE7"/>
  <rect x="152" y="272" width="355" height="330" rx="28" fill="#F0FDF4" stroke="#BBF7D0" stroke-width="4"/>
  <rect x="184" y="304" width="291" height="52" rx="16" fill="#FFFFFF"/>
  <circle cx="218" cy="330" r="13" fill="#22C55E"/>
  <rect x="246" y="319" width="185" height="14" rx="7" fill="#86EFAC"/>
  <rect x="184" y="388" width="291" height="52" rx="16" fill="#FFFFFF"/>
  <circle cx="218" cy="414" r="13" fill="#15803D"/>
  <rect x="246" y="403" width="154" height="14" rx="7" fill="#86EFAC"/>
  <rect x="184" y="472" width="291" height="52" rx="16" fill="#FFFFFF"/>
  <circle cx="218" cy="498" r="13" fill="#22C55E"/>
  <rect x="246" y="487" width="205" height="14" rx="7" fill="#86EFAC"/>
  <path d="M628 302C628 255.056 666.056 217 713 217H909C955.944 217 994 255.056 994 302V568H628V302Z" fill="#DCFCE7"/>
  <rect x="654" y="248" width="314" height="222" rx="22" fill="#14532D"/>
  <rect x="681" y="276" width="260" height="166" rx="14" fill="#F0FDF4"/>
  <path d="M733 386L781 338L827 384L879 319L920 386" stroke="#16A34A" stroke-width="14" stroke-linecap="round" stroke-linejoin="round"/>
  <circle cx="730" cy="320" r="22" fill="#FACC15"/>
  <path d="M615 568H1007L1062 640H560L615 568Z" fill="#334155"/>
  <rect x="684" y="596" width="254" height="20" rx="10" fill="#64748B"/>
  <ellipse cx="811" cy="654" rx="331" ry="28" fill="#D1FAE5"/>
  <path d="M548 336C548 292.37 583.37 257 627 257C670.63 257 706 292.37 706 336V455H548V336Z" fill="#14532D"/>
  <circle cx="627" cy="342" r="61" fill="#5B341F"/>
  <path d="M558 325C572 274 622 247 674 271C710 288 721 321 713 350C680 340 653 322 626 292C609 319 583 332 558 325Z" fill="#111827"/>
  <path d="M531 606C542 517 578 465 627 465C676 465 712 517 723 606H531Z" fill="#22C55E"/>
  <path d="M589 470L627 520L665 470" stroke="#DCFCE7" stroke-width="16" stroke-linecap="round" stroke-linejoin="round"/>
  <circle cx="1103" cy="358" r="58" fill="#6B3F2A"/>
  <path d="M1042 337C1053 285 1106 261 1154 286C1180 300 1194 324 1193 350C1158 352 1130 338 1100 307C1084 329 1063 340 1042 337Z" fill="#111827"/>
  <path d="M1008 606C1016 516 1051 466 1103 466C1155 466 1190 516 1198 606H1008Z" fill="#0F766E"/>
  <rect x="1035" y="418" width="138" height="230" rx="28" fill="#1E293B"/>
  <rect x="1053" y="450" width="102" height="158" rx="16" fill="#F0FDF4"/>
  <circle cx="1104" cy="627" r="10" fill="#94A3B8"/>
  <rect x="1074" y="476" width="61" height="10" rx="5" fill="#22C55E"/>
  <rect x="1074" y="505" width="42" height="10" rx="5" fill="#86EFAC"/>
  <rect x="1074" y="534" width="70" height="10" rx="5" fill="#22C55E"/>
  <path d="M777 164H857L874 194H760L777 164Z" fill="#BBF7D0"/>
  <text x="702" y="189" fill="white" font-family="Arial, sans-serif" font-size="36" font-weight="700">9jaDirectory Local SEO</text>
</svg>
