<svg width="1400" height="788" viewBox="0 0 1400 788" fill="none" xmlns="http://www.w3.org/2000/svg" role="img" aria-labelledby="title desc">
  <title id="title">Nigerian entrepreneur updating a business directory listing</title>
  <desc id="desc">Illustration of a Black Nigerian female entrepreneur updating her business listing in a boutique with product shelves.</desc>
  <rect width="1400" height="788" fill="#FFF7ED"/>
  <rect x="86" y="70" width="1228" height="642" rx="40" fill="#FFFFFF"/>
  <rect x="132" y="122" width="328" height="500" rx="28" fill="#ECFDF5"/>
  <rect x="172" y="166" width="248" height="72" rx="18" fill="#16A34A"/>
  <rect x="172" y="274" width="248" height="48" rx="14" fill="#BBF7D0"/>
  <rect x="172" y="350" width="248" height="48" rx="14" fill="#BBF7D0"/>
  <rect x="172" y="426" width="248" height="48" rx="14" fill="#BBF7D0"/>
  <rect x="172" y="502" width="248" height="48" rx="14" fill="#BBF7D0"/>
  <circle cx="212" cy="202" r="18" fill="#DCFCE7"/>
  <rect x="248" y="190" width="126" height="14" rx="7" fill="#DCFCE7"/>
  <rect x="248" y="212" width="88" height="10" rx="5" fill="#DCFCE7"/>
  <rect x="910" y="134" width="272" height="488" rx="28" fill="#FDF2F8"/>
  <rect x="946" y="178" width="200" height="74" rx="16" fill="#F9A8D4"/>
  <rect x="946" y="290" width="200" height="74" rx="16" fill="#FDBA74"/>
  <rect x="946" y="402" width="200" height="74" rx="16" fill="#86EFAC"/>
  <rect x="946" y="514" width="200" height="74" rx="16" fill="#93C5FD"/>
  <path d="M534 297C534 245.086 576.086 203 628 203C679.914 203 722 245.086 722 297V410H534V297Z" fill="#111827"/>
  <circle cx="628" cy="317" r="70" fill="#6B3F2A"/>
  <path d="M545 301C560 238 625 205 685 239C722 260 739 295 730 331C687 326 654 306 622 267C603 294 575 306 545 301Z" fill="#111827"/>
  <circle cx="601" cy="329" r="8" fill="#111827"/>
  <circle cx="654" cy="329" r="8" fill="#111827"/>
  <path d="M604 360C620 372 638 372 653 360" stroke="#111827" stroke-width="8" stroke-linecap="round"/>
  <path d="M494 646C505 505 557 421 628 421C699 421 751 505 762 646H494Z" fill="#16A34A"/>
  <path d="M554 440L628 528L702 440" stroke="#FDE68A" stroke-width="20" stroke-linecap="round" stroke-linejoin="round"/>
  <path d="M520 504L479 606" stroke="#6B3F2A" stroke-width="30" stroke-linecap="round"/>
  <path d="M738 505L794 596" stroke="#6B3F2A" stroke-width="30" stroke-linecap="round"/>
  <rect x="478" y="548" width="344" height="92" rx="20" fill="#334155"/>
  <rect x="513" y="572" width="274" height="42" rx="12" fill="#F8FAFC"/>
  <rect x="560" y="588" width="180" height="12" rx="6" fill="#86EFAC"/>
  <rect x="808" y="448" width="112" height="192" rx="24" fill="#1E293B"/>
  <rect x="823" y="476" width="82" height="126" rx="14" fill="#ECFDF5"/>
  <rect x="840" y="501" width="48" height="9" rx="4.5" fill="#16A34A"/>
  <rect x="840" y="530" width="35" height="9" rx="4.5" fill="#86EFAC"/>
  <rect x="840" y="559" width="56" height="9" rx="4.5" fill="#16A34A"/>
  <circle cx="864" cy="620" r="8" fill="#94A3B8"/>
  <rect x="514" y="154" width="308" height="58" rx="18" fill="#DCFCE7"/>
  <text x="547" y="193" fill="#14532D" font-family="Arial, sans-serif" font-size="30" font-weight="700">Update Your Listing</text>
  <rect x="510" y="674" width="456" height="20" rx="10" fill="#FED7AA"/>
</svg>
